<svg width="199" height="32" viewBox="0 0 199 32" fill="none" xmlns="http://www.w3.org/2000/svg">
<g clip-path="url(#clip0)">
<g style="mix-blend-mode:multiply">
<g style="mix-blend-mode:multiply">
<path d="M33.17 2.62854V31.1254H25.2705V15.4016L19.9101 31.1254H13.3003L7.89954 15.2803V31.1254H0V2.62854H9.552L16.6858 21.1414L23.6583 2.62854H33.17Z" fill="#F4C51D"/>
</g>
</g>
<g style="mix-blend-mode:multiply">
<g style="mix-blend-mode:multiply">
<path d="M36.377 19.7671C36.377 17.4226 36.7935 15.3747 37.6264 13.6231C38.4863 11.8715 39.6416 10.5241 41.0926 9.58097C42.5704 8.63781 44.2094 8.16623 46.0096 8.16623C47.5681 8.16623 48.9115 8.47612 50.04 9.09591C51.1685 9.7157 52.0418 10.5512 52.6598 11.6021V8.44918H60.5593V31.1254H52.6598V27.9725C52.0418 29.0235 51.1551 29.8589 49.9997 30.4787C48.8712 31.0984 47.5412 31.4083 46.0096 31.4083C44.2094 31.4083 42.5704 30.9368 41.0926 29.9936C39.6416 29.0504 38.4863 27.7031 37.6264 25.9515C36.7935 24.173 36.377 22.1115 36.377 19.7671ZM52.6598 19.7671C52.6598 18.3119 52.2567 17.1666 51.4506 16.3313C50.6714 15.4959 49.7042 15.0782 48.5488 15.0782C47.3665 15.0782 46.3858 15.4959 45.6066 16.3313C44.8274 17.1397 44.4378 18.285 44.4378 19.7671C44.4378 21.2222 44.8274 22.381 45.6066 23.2433C46.3858 24.0786 47.3665 24.4963 48.5488 24.4963C49.7042 24.4963 50.6714 24.0786 51.4506 23.2433C52.2567 22.4079 52.6598 21.2492 52.6598 19.7671Z" fill="#F4C51D"/>
</g>
</g>
<g style="mix-blend-mode:multiply">
<g style="mix-blend-mode:multiply">
<path d="M72.9603 11.6021C73.5783 10.5242 74.4515 9.68876 75.58 9.09592C76.7085 8.47613 78.0386 8.16623 79.5701 8.16623C81.3703 8.16623 82.9959 8.63781 84.4465 9.58097C85.9243 10.5241 87.0797 11.8715 87.9127 13.6231C88.7725 15.3747 89.2024 17.4227 89.2024 19.7671C89.2024 22.1115 88.7725 24.173 87.9127 25.9515C87.0797 27.7031 85.9243 29.0504 84.4465 29.9936C82.9959 30.9368 81.3703 31.4083 79.5701 31.4083C78.0386 31.4083 76.7085 31.1119 75.58 30.5191C74.4515 29.8993 73.5783 29.0504 72.9603 27.9725V31.1254H65.0607V1.2139H72.9603V11.6021ZM81.1823 19.7671C81.1823 18.285 80.7792 17.1397 79.9731 16.3313C79.1939 15.4959 78.2266 15.0782 77.0713 15.0782C75.9159 15.0782 74.9352 15.4959 74.1291 16.3313C73.3499 17.1667 72.9603 18.3119 72.9603 19.7671C72.9603 21.2492 73.3499 22.4079 74.1291 23.2433C74.9352 24.0787 75.9159 24.4963 77.0713 24.4963C78.2266 24.4963 79.1939 24.0787 79.9731 23.2433C80.7792 22.381 81.1823 21.2222 81.1823 19.7671Z" fill="#F4C51D"/>
</g>
</g>
<g style="mix-blend-mode:multiply">
<g style="mix-blend-mode:multiply">
<path d="M107.326 8.24708C109.906 8.24708 111.948 9.12287 113.453 10.8744C114.984 12.5991 115.75 14.9435 115.75 17.9077V31.1254H107.85V18.9587C107.85 17.6652 107.515 16.6547 106.843 15.9271C106.171 15.1726 105.271 14.7953 104.142 14.7953C102.96 14.7953 102.033 15.1726 101.362 15.9271C100.69 16.6547 100.354 17.6652 100.354 18.9587V31.1254H92.4544V1.2139H100.354V11.683C101.053 10.6589 101.993 9.83697 103.175 9.21718C104.384 8.57045 105.768 8.24708 107.326 8.24708Z" fill="#F4C51D"/>
</g>
</g>
<g style="mix-blend-mode:multiply">
<g style="mix-blend-mode:multiply">
<path d="M143.22 8.44919V31.1254H135.28V27.8917C134.608 28.9157 133.681 29.7511 132.499 30.3978C131.316 31.0176 129.96 31.3275 128.428 31.3275C125.795 31.3275 123.712 30.4652 122.181 28.7406C120.676 26.989 119.924 24.6176 119.924 21.6265V8.44919H127.783V20.6159C127.783 21.9094 128.119 22.9334 128.791 23.6879C129.489 24.4155 130.403 24.7793 131.531 24.7793C132.687 24.7793 133.6 24.4155 134.272 23.6879C134.944 22.9334 135.28 21.9094 135.28 20.6159V8.44919H143.22Z" fill="#F4C51D"/>
</g>
</g>
<g style="mix-blend-mode:multiply">
<g style="mix-blend-mode:multiply">
<path d="M177.258 8.24707C180.106 8.24707 182.336 9.10939 183.948 10.834C185.587 12.5587 186.407 14.9165 186.407 17.9077V31.1254H178.507V18.9586C178.507 17.746 178.171 16.8029 177.5 16.1292C176.828 15.4555 175.914 15.1186 174.759 15.1186C173.604 15.1186 172.69 15.4555 172.018 16.1292C171.347 16.8029 171.011 17.746 171.011 18.9586V31.1254H163.111V18.9586C163.111 17.746 162.775 16.8029 162.104 16.1292C161.459 15.4555 160.559 15.1186 159.403 15.1186C158.221 15.1186 157.294 15.4555 156.622 16.1292C155.951 16.8029 155.615 17.746 155.615 18.9586V31.1254H147.715V8.44918H155.615V11.4403C156.313 10.4702 157.213 9.70223 158.315 9.13633C159.444 8.54349 160.733 8.24707 162.184 8.24707C163.85 8.24707 165.328 8.61086 166.618 9.33844C167.934 10.066 168.969 11.09 169.721 12.4104C170.527 11.1709 171.588 10.1738 172.905 9.41928C174.222 8.63781 175.673 8.24707 177.258 8.24707Z" fill="#F4C51D"/>
</g>
</g>
<g style="mix-blend-mode:multiply">
<g style="mix-blend-mode:multiply">
<path d="M198.961 8.70981V31.386H191.062V8.70981H198.961Z" fill="#F4C51D"/>
</g>
</g>
<path d="M194.498 6.73684C193.324 6.73684 192.375 6.43034 191.653 5.81734C190.954 5.18245 190.603 4.39431 190.603 3.45291C190.603 2.48963 190.954 1.69053 191.653 1.05565C192.375 0.420751 193.436 0.0756579 194.604 0.0342394C195.874 -0.0107736 196.667 -0.012025 198.964 0.0341709C199.052 2.29293 198.967 3.39242 198.838 3.96625C198.615 4.95228 198.433 5.49293 197.545 6.12586C196.634 6.63798 195.649 6.73684 194.498 6.73684Z" fill="#539F00"/>
</g>
<defs>
<clipPath id="clip0">
<rect width="199" height="32" fill="white"/>
</clipPath>
</defs>
</svg>
