<svg width="40" height="40" viewBox="0 0 40 40" fill="none" xmlns="http://www.w3.org/2000/svg">
<g clip-path="url(#clip0)">
<path d="M36.8986 20.7348V2.51992C36.8986 1.87009 36.3718 1.34326 35.722 1.34326H4.19674C3.54691 1.34326 3.02008 1.87009 3.02008 2.51992V22.1868C2.45246 22.2695 1.89755 22.4899 1.40664 22.8543C-0.140899 23.9517 -0.506918 26.4074 0.789368 27.922L6.08928 34.3471C9.36996 38.1867 12.855 38.6571 18.0359 38.6571C22.4819 38.6571 24.4696 38.6767 28.3443 37.7938L32.1173 36.8914C32.7291 37.7457 33.7003 38.2992 34.7922 38.2992H36.6508C38.4975 38.2992 40 36.7164 40 34.7709V24.2524C40.0001 22.3948 38.63 20.8689 36.8986 20.7348ZM31.6098 23.1552L30.042 22.359C27.4642 21.0578 24.4839 21.0096 21.8655 22.227C21.1511 22.508 19.5929 23.4507 18.7847 23.4192H13.3445C11.54 23.4192 10.0718 24.8873 10.0718 26.6919V27.55C10.0617 27.5393 10.0511 27.5292 10.0411 27.5184L6.15619 23.3015C5.9211 23.0463 5.65697 22.8328 5.37348 22.6614V10.9875H15.0027V15.3008C15.0027 15.9506 15.5295 16.4775 16.1794 16.4775H23.6042C24.254 16.4775 24.7808 15.9506 24.7808 15.3008V10.9875H34.5454V20.7347C33.1706 20.8409 32.0242 21.8244 31.6098 23.1552ZM17.356 10.9875H22.4274V14.1241H17.356V10.9875ZM34.5453 8.63416H24.7808V3.69658H34.5454V8.63416H34.5453ZM22.4275 3.69658V8.63424H17.356V3.69658H22.4275ZM15.0026 3.69658V8.63424H5.3734V3.69658H15.0026ZM27.7982 35.5047C24.2188 36.3245 22.0631 36.2913 18.0781 36.2913C13.2146 36.2913 10.8646 36.2127 7.90479 32.8495L2.60488 26.4244C1.683 25.224 3.35276 23.8069 4.4254 24.8958L8.31034 29.1128C9.3371 30.1962 10.6291 30.7925 12.2216 30.8275H22.9926C23.6425 30.8275 24.1693 30.3007 24.1693 29.6509C24.1693 29.001 23.6425 28.4742 22.9926 28.4742H12.425V26.6917C12.425 26.1848 12.8374 25.7724 13.3444 25.7724H18.7847C20.0103 25.8601 21.7793 24.8368 22.8575 24.3608C24.8186 23.449 27.0508 23.4851 28.9789 24.4583L31.4432 25.7099V34.6328L27.7982 35.5047ZM37.6467 34.7708C37.6467 35.4187 37.2 35.9458 36.6509 35.9458H34.7922C34.2431 35.9458 33.7965 35.4187 33.7965 34.7708V24.2524C33.7965 23.6046 34.2432 23.0774 34.7922 23.0774H36.6509C37.2 23.0774 37.6467 23.6045 37.6467 24.2524V34.7708Z" fill="#3A3A3A"/>
</g>
<defs>
<clipPath id="clip0">
<rect width="40" height="40" fill="white"/>
</clipPath>
</defs>
</svg>
